<?xml version="1.0" standalone="no"?>
<!DOCTYPE svg PUBLIC "-//W3C//DTD SVG 20010904//EN"
 "http://www.w3.org/TR/2001/REC-SVG-20010904/DTD/svg10.dtd">
<svg version="1.0" xmlns="http://www.w3.org/2000/svg"
 width="1024.000000pt" height="1024.000000pt" viewBox="0 0 1024.000000 1024.000000"
 preserveAspectRatio="xMidYMid meet">

<g transform="translate(0.000000,1024.000000) scale(0.100000,-0.100000)"
fill="#000000" stroke="none">
<path d="M5079 7858 c-19 -12 -90 -54 -159 -93 -69 -40 -246 -143 -395 -230
-297 -173 -431 -252 -515 -300 -188 -109 -312 -181 -440 -254 -80 -46 -209
-122 -287 -168 l-143 -84 0 -308 c0 -170 -3 -316 -6 -324 -4 -10 24 -32 98
-74 249 -145 288 -169 288 -178 0 -5 -81 -57 -180 -115 -99 -58 -184 -110
-189 -115 -6 -6 -11 -141 -12 -334 l-1 -323 48 -27 c27 -15 110 -63 184 -105
74 -43 155 -90 180 -104 45 -26 562 -325 590 -341 8 -5 76 -44 150 -87 74 -42
268 -153 429 -247 162 -93 310 -178 329 -188 18 -11 43 -26 55 -33 21 -13 59
7 572 305 647 376 1039 604 1150 669 44 26 124 73 178 104 l97 57 2 314 c0
173 1 320 2 326 1 6 -44 37 -99 69 -225 129 -290 168 -288 176 1 5 83 57 183
115 99 58 185 110 190 115 5 5 10 152 10 333 l2 323 -184 106 c-100 58 -268
155 -373 215 -104 60 -208 120 -230 132 -22 13 -118 68 -214 124 -95 56 -175
101 -177 101 -1 0 -39 23 -84 50 -45 28 -83 50 -85 50 -4 0 -180 101 -272 156
-40 24 -75 44 -77 44 -3 0 -45 24 -93 53 -48 29 -113 67 -144 84 l-56 32 -34
-21z m188 -726 c76 -43 194 -112 263 -152 69 -40 145 -84 170 -98 25 -13 70
-39 100 -57 144 -85 229 -134 275 -160 28 -15 91 -51 140 -80 50 -29 141 -83
203 -118 111 -64 113 -66 90 -80 -31 -20 -193 -114 -248 -145 -25 -14 -58 -34
-75 -44 -16 -10 -38 -18 -47 -18 -10 0 -77 34 -150 77 -73 42 -216 124 -318
183 -102 58 -266 153 -365 210 -98 57 -184 103 -190 103 -10 0 -299 -164 -513
-292 -57 -33 -105 -61 -106 -61 -1 0 -87 -49 -191 -110 -104 -60 -194 -110
-200 -110 -6 0 -32 14 -58 30 -26 17 -49 30 -51 30 -4 0 -279 159 -283 164 -2
2 45 31 104 66 60 34 149 86 198 115 50 29 108 63 130 75 22 12 76 43 120 69
44 26 130 76 190 111 61 35 148 86 195 113 47 27 114 66 150 87 117 68 244
143 275 161 17 10 35 17 42 14 7 -2 74 -40 150 -83z m-60 -1083 c48 -28 148
-85 221 -127 72 -41 132 -78 132 -81 0 -7 -407 -244 -427 -249 -7 -2 -74 32
-148 75 -74 43 -143 83 -153 88 -84 48 -152 90 -152 95 0 6 421 250 432 250 4
0 47 -23 95 -51z m-982 -599 c61 -34 138 -80 173 -102 34 -21 73 -43 85 -49
12 -5 31 -15 42 -22 128 -75 180 -106 235 -137 36 -21 103 -60 150 -87 47 -28
115 -67 152 -87 l66 -37 174 102 c503 294 703 410 772 449 65 37 57 38 166
-26 135 -79 161 -94 165 -94 2 0 32 -17 65 -38 l61 -39 -83 -48 c-46 -27 -162
-94 -258 -150 -96 -56 -301 -175 -455 -265 -550 -320 -602 -350 -609 -350 -3
0 -45 23 -93 51 -48 29 -128 75 -178 104 -100 57 -553 318 -600 345 -44 26
-399 231 -479 278 l-68 40 93 54 c262 153 304 176 309 174 3 -2 55 -31 115
-66z"/>
<path d="M2763 3027 c-6 -18 -43 -120 -82 -227 -40 -107 -78 -213 -86 -235 -8
-22 -34 -96 -59 -164 -25 -69 -46 -126 -46 -128 0 -2 8 -3 18 -3 13 0 31 40
80 178 125 349 186 511 193 507 7 -5 9 -10 104 -275 37 -102 82 -226 101 -277
19 -51 34 -95 34 -98 0 -3 -94 -5 -210 -5 -180 0 -210 -2 -210 -15 0 -13 32
-15 230 -15 192 0 230 2 230 14 0 8 -14 52 -31 98 -17 45 -43 119 -60 163 -16
44 -57 159 -93 255 -35 96 -69 192 -75 212 -16 50 -26 54 -38 15z"/>
<path d="M3337 2934 c-11 -12 -8 -359 4 -437 20 -130 72 -201 165 -227 87 -25
196 11 241 79 49 72 57 129 58 366 0 189 -2 220 -15 220 -13 0 -16 -35 -21
-235 -6 -249 -12 -289 -56 -340 -37 -45 -74 -60 -143 -60 -69 0 -106 15 -144
60 -49 59 -59 115 -62 355 -2 200 -7 238 -27 219z"/>
<path d="M4120 2933 c0 -5 9 -19 20 -33 11 -14 20 -28 20 -31 0 -4 29 -56 65
-117 36 -60 65 -115 65 -122 0 -10 -105 -199 -183 -328 l-20 -34 23 4 c13 2
30 16 39 33 71 132 165 285 172 278 4 -4 46 -77 94 -160 66 -117 92 -153 107
-153 20 0 20 0 0 33 -64 105 -182 318 -182 327 0 6 11 28 25 50 14 22 25 42
25 44 0 2 27 50 59 105 33 55 56 103 50 106 -16 11 -28 -4 -106 -137 -69 -118
-78 -129 -90 -112 -7 10 -43 71 -80 136 -47 83 -72 118 -85 118 -10 0 -18 -3
-18 -7z"/>
<path d="M4830 2605 c0 -291 2 -335 15 -335 13 0 15 44 15 335 0 291 -2 335
-15 335 -13 0 -15 -44 -15 -335z"/>
<path d="M5217 2934 c-4 -4 -7 -155 -7 -336 l0 -328 190 0 c161 0 190 2 190
15 0 12 -28 15 -172 17 l-173 3 -1 315 c-2 289 -6 335 -27 314z"/>
<path d="M5870 2605 c0 -291 2 -335 15 -335 13 0 15 44 15 335 0 291 -2 335
-15 335 -13 0 -15 -44 -15 -335z"/>
<path d="M6252 2703 c5 -273 13 -309 82 -378 70 -69 172 -83 265 -35 49 25 79
65 102 142 16 51 19 93 19 285 0 175 -3 224 -12 221 -10 -4 -15 -65 -19 -239
-4 -156 -10 -246 -19 -269 -34 -91 -88 -130 -179 -130 -70 0 -91 8 -139 53
-54 52 -64 102 -69 360 -5 191 -8 227 -20 227 -13 0 -14 -33 -11 -237z"/>
<path d="M7087 2934 c-4 -4 -7 -155 -7 -336 0 -285 2 -328 15 -328 13 0 15 41
15 305 0 168 3 305 8 305 4 0 61 -54 127 -120 66 -66 123 -120 128 -120 5 0
61 54 126 120 65 66 121 120 124 120 4 0 7 -130 7 -290 l0 -290 -220 0 c-189
0 -220 -2 -220 -15 0 -13 33 -15 235 -15 l235 0 0 335 c0 249 -3 335 -12 335
-6 0 -71 -59 -145 -132 l-133 -132 -130 130 c-135 134 -142 139 -153 128z"/>
</g>
</svg>
